<svg width="24" height="24" viewBox="0 0 24 24" fill="none" xmlns="http://www.w3.org/2000/svg">
<path d="M19.6761 13.3442L20.2559 13.82L19.6761 13.3442ZM19.6761 10.5558L19.0962 11.0315V11.0315L19.6761 10.5558ZM4.7512 13.3442L5.33102 12.8685L4.7512 13.3442ZM4.7512 10.5558L4.17137 10.08L4.7512 10.5558ZM4 11.95H3.25H4ZM4.7512 13.3442L4.17137 13.82C4.91566 14.7271 6.0238 15.9199 7.37967 16.8913C8.73055 17.8591 10.3876 18.65 12.2136 18.65V17.9V17.15C10.8209 17.15 9.46819 16.5423 8.25325 15.6719C7.0433 14.8051 6.02959 13.72 5.33102 12.8685L4.7512 13.3442ZM12.2136 17.9V18.65C14.0396 18.65 15.6967 17.8591 17.0476 16.8913C18.4035 15.9199 19.5116 14.7271 20.2559 13.82L19.6761 13.3442L19.0962 12.8685C18.3977 13.72 17.384 14.8051 16.174 15.6719C14.9591 16.5423 13.6064 17.15 12.2136 17.15V17.9ZM19.6761 10.5558L20.2559 10.08C19.5116 9.17289 18.4035 7.98011 17.0476 7.00873C15.6967 6.04091 14.0396 5.25 12.2136 5.25V6V6.75C13.6064 6.75 14.9591 7.35767 16.174 8.22809C17.384 9.09494 18.3977 10.18 19.0962 11.0315L19.6761 10.5558ZM12.2136 6V5.25C10.3876 5.25 8.73055 6.04091 7.37967 7.00873C6.0238 7.98011 4.91566 9.17289 4.17137 10.08L4.7512 10.5558L5.33102 11.0315C6.02959 10.18 7.0433 9.09494 8.25325 8.22809C9.46819 7.35767 10.8209 6.75 12.2136 6.75V6ZM19.6761 13.3442L20.2559 13.82C20.7066 13.2706 21.1773 12.7488 21.1773 11.95H20.4273H19.6773C19.6773 12.0333 19.6627 12.0992 19.5933 12.2169C19.5043 12.368 19.3605 12.5464 19.0962 12.8685L19.6761 13.3442ZM19.6761 10.5558L19.0962 11.0315C19.3605 11.3536 19.5043 11.532 19.5933 11.6831C19.6627 11.8008 19.6773 11.8667 19.6773 11.95H20.4273H21.1773C21.1773 11.1512 20.7066 10.6294 20.2559 10.08L19.6761 10.5558ZM4.7512 13.3442L5.33102 12.8685C5.06675 12.5464 4.92296 12.368 4.83393 12.2169C4.76456 12.0992 4.75 12.0333 4.75 11.95H4H3.25C3.25 12.7488 3.72066 13.2706 4.17137 13.82L4.7512 13.3442ZM4.7512 10.5558L4.17137 10.08C3.72066 10.6294 3.25 11.1512 3.25 11.95H4H4.75C4.75 11.8667 4.76456 11.8008 4.83393 11.6831C4.92296 11.532 5.06675 11.3536 5.33102 11.0315L4.7512 10.5558ZM9.66363 11.95H8.91363C8.91363 13.6874 10.4883 14.9312 12.2136 14.9312V14.1812V13.4312C11.1223 13.4312 10.4136 12.6771 10.4136 11.95H9.66363ZM12.2136 14.1812V14.9312C13.939 14.9312 15.5136 13.6874 15.5136 11.95H14.7636H14.0136C14.0136 12.6771 13.3049 13.4312 12.2136 13.4312V14.1812ZM14.7636 11.95H15.5136C15.5136 10.2126 13.939 8.96875 12.2136 8.96875V9.71875V10.4688C13.3049 10.4688 14.0136 11.2229 14.0136 11.95H14.7636ZM12.2136 9.71875V8.96875C10.4883 8.96875 8.91363 10.2126 8.91363 11.95H9.66363H10.4136C10.4136 11.2229 11.1223 10.4688 12.2136 10.4688V9.71875Z" fill="#313742"/>
</svg>
