<svg width="24" height="24" viewBox="0 0 24 24" fill="none" xmlns="http://www.w3.org/2000/svg">
<path d="M19.6761 13.3442L20.2559 13.82L19.6761 13.3442ZM19.6761 10.5558L20.2559 10.08L20.2471 10.0693L20.2379 10.0589L19.6761 10.5558ZM4.7512 13.3442L4.17137 13.82H4.17137L4.7512 13.3442ZM4.7512 10.5558L4.17137 10.08H4.17137L4.7512 10.5558ZM4 11.95H3.25H4ZM9.10946 16.225C8.75035 16.0185 8.29189 16.1423 8.08546 16.5014C7.87904 16.8605 8.00281 17.319 8.36192 17.5254L9.10946 16.225ZM17.1161 8L17.6091 7.43485L17.596 7.42344L17.5824 7.41264L17.1161 8ZM18.1278 8.88267L18.6783 8.37327L18.6511 8.34386L18.6209 8.31751L18.1278 8.88267ZM12.2136 17.9V18.65C14.0396 18.65 15.6967 17.8591 17.0476 16.8913C18.4035 15.9199 19.5116 14.7271 20.2559 13.82L19.6761 13.3442L19.0962 12.8685C18.3977 13.72 17.384 14.8051 16.174 15.6719C14.9591 16.5423 13.6064 17.15 12.2136 17.15V17.9ZM12.2136 6V5.25C10.3876 5.25 8.73055 6.04091 7.37967 7.00873C6.0238 7.98011 4.91566 9.17289 4.17137 10.08L4.7512 10.5558L5.33102 11.0315C6.02959 10.18 7.0433 9.09494 8.25325 8.22809C9.46819 7.35767 10.8209 6.75 12.2136 6.75V6ZM19.6761 13.3442L20.2559 13.82C20.7066 13.2706 21.1773 12.7488 21.1773 11.95H20.4273H19.6773C19.6773 12.0333 19.6627 12.0992 19.5933 12.2169C19.5043 12.368 19.3605 12.5464 19.0962 12.8685L19.6761 13.3442ZM19.6761 10.5558L19.0962 11.0315C19.3605 11.3536 19.5043 11.532 19.5933 11.6831C19.6627 11.8008 19.6773 11.8667 19.6773 11.95H20.4273H21.1773C21.1773 11.1512 20.7066 10.6294 20.2559 10.08L19.6761 10.5558ZM4.7512 13.3442L5.33102 12.8685C5.06675 12.5464 4.92296 12.368 4.83393 12.2169C4.76456 12.0992 4.75 12.0333 4.75 11.95H4H3.25C3.25 12.7488 3.72066 13.2706 4.17137 13.82L4.7512 13.3442ZM4.7512 10.5558L4.17137 10.08C3.72066 10.6294 3.25 11.1512 3.25 11.95H4H4.75C4.75 11.8667 4.76456 11.8008 4.83393 11.6831C4.92296 11.532 5.06675 11.3536 5.33102 11.0315L4.7512 10.5558ZM9.66363 11.95H8.91363C8.91363 13.6874 10.4883 14.9312 12.2136 14.9312V14.1812V13.4312C11.1223 13.4312 10.4136 12.6771 10.4136 11.95H9.66363ZM12.2136 14.1812V14.9312C13.939 14.9312 15.5136 13.6874 15.5136 11.95H14.7636H14.0136C14.0136 12.6771 13.3049 13.4312 12.2136 13.4312V14.1812ZM14.7636 11.95H15.5136C15.5136 10.2126 13.939 8.96875 12.2136 8.96875V9.71875V10.4688C13.3049 10.4688 14.0136 11.2229 14.0136 11.95H14.7636ZM12.2136 9.71875V8.96875C10.4883 8.96875 8.91363 10.2126 8.91363 11.95H9.66363H10.4136C10.4136 11.2229 11.1223 10.4688 12.2136 10.4688V9.71875ZM8.73569 16.8752L8.36192 17.5254C9.4997 18.1795 10.8059 18.65 12.2136 18.65V17.9V17.15C11.1431 17.15 10.0949 16.7914 9.10946 16.225L8.73569 16.8752ZM17.1161 8L17.5824 7.41264C16.1372 6.26506 14.2827 5.25 12.2136 5.25V6V6.75C13.7961 6.75 15.3244 7.535 16.6497 8.58736L17.1161 8ZM4.7512 13.3442L4.17137 13.82C4.78439 14.5671 5.64112 15.5042 6.67706 16.3521L7.15211 15.7717L7.62717 15.1914C6.69096 14.4251 5.90361 13.5664 5.33102 12.8685L4.7512 13.3442ZM7.15211 15.7717L6.67706 16.3521C6.77616 16.4332 6.87698 16.5136 6.97949 16.593L7.4387 16L7.89792 15.407C7.80645 15.3362 7.71618 15.2642 7.62717 15.1914L7.15211 15.7717ZM17.1161 8L16.6548 7.40862L6.69085 15.1804L7.15211 15.7717L7.61338 16.3631L17.5773 8.59138L17.1161 8ZM19.6761 10.5558L20.2379 10.0589L19.2808 8.9766L18.719 9.47343L18.1571 9.97026L19.1142 11.0526L19.6761 10.5558ZM19.6761 10.5558L20.2265 10.0464L18.6783 8.37327L18.1278 8.88267L17.5773 9.39206L19.1256 11.0652L19.6761 10.5558ZM18.1278 8.88267L18.6209 8.31751L17.6091 7.43485L17.1161 8L16.623 8.56515L17.6348 9.44782L18.1278 8.88267Z" fill="#313742"/>
<path d="M5 17.5L19 6.5" stroke="#313742" stroke-width="1.5" stroke-linecap="round"/>
</svg>
