<svg width="24" height="24" viewBox="0 0 24 24" fill="none" xmlns="http://www.w3.org/2000/svg">
<path d="M5.83207 19.929L6.2729 19.3222L5.83207 19.929ZM4.84881 18.9457L5.45558 18.5049L4.84881 18.9457ZM19.1512 18.9457L18.5444 18.5049L19.1512 18.9457ZM18.1679 19.929L18.6088 20.5357L18.1679 19.929ZM18.1679 5.62659L18.6088 5.01983L18.1679 5.62659ZM19.1512 6.60984L18.5444 7.05068L19.1512 6.60984ZM5.83207 5.62659L6.2729 6.23335L5.83207 5.62659ZM4.84881 6.60984L5.45558 7.05068L4.84881 6.60984ZM18.4158 15.4992L18.2985 14.7584L18.4158 15.4992ZM14.7214 19.1936L13.9806 19.0763L14.7214 19.1936ZM9.33333 12.9167C8.91912 12.9167 8.58333 13.2525 8.58333 13.6667C8.58333 14.0809 8.91912 14.4167 9.33333 14.4167V12.9167ZM14.6667 14.4167C15.0809 14.4167 15.4167 14.0809 15.4167 13.6667C15.4167 13.2525 15.0809 12.9167 14.6667 12.9167V14.4167ZM13.9167 5.66667C13.9167 6.08088 14.2525 6.41667 14.6667 6.41667C15.0809 6.41667 15.4167 6.08088 15.4167 5.66667H13.9167ZM15.4167 3C15.4167 2.58579 15.0809 2.25 14.6667 2.25C14.2525 2.25 13.9167 2.58579 13.9167 3H15.4167ZM8.58333 5.66667C8.58333 6.08088 8.91912 6.41667 9.33333 6.41667C9.74755 6.41667 10.0833 6.08088 10.0833 5.66667H8.58333ZM10.0833 3C10.0833 2.58579 9.74755 2.25 9.33333 2.25C8.91912 2.25 8.58333 2.58579 8.58333 3H10.0833ZM19.9743 15.4444L20.7238 15.4701L19.9743 15.4444ZM4.02571 10.1111L3.27615 10.0854L4.02571 10.1111ZM19.9743 10.1111L20.7238 10.0854L19.9743 10.1111ZM12 20.0278C10.3167 20.0278 9.11455 20.0268 8.18502 19.926C7.26952 19.8269 6.70789 19.6382 6.2729 19.3222L5.39123 20.5357C6.12453 21.0685 6.98032 21.3043 8.02345 21.4173C9.05253 21.5288 10.3502 21.5278 12 21.5278V20.0278ZM3.25 12.7778C3.25 14.4276 3.24897 15.7252 3.36047 16.7543C3.47348 17.7975 3.70927 18.6532 4.24205 19.3866L5.45558 18.5049C5.13954 18.0699 4.95093 17.5083 4.85174 16.5928C4.75103 15.6632 4.75 14.461 4.75 12.7778H3.25ZM6.2729 19.3222C5.95927 19.0943 5.68345 18.8185 5.45558 18.5049L4.24205 19.3866C4.56244 19.8275 4.95025 20.2153 5.39123 20.5357L6.2729 19.3222ZM18.5444 18.5049C18.3166 18.8185 18.0407 19.0943 17.7271 19.3222L18.6088 20.5357C19.0498 20.2153 19.4376 19.8275 19.758 19.3866L18.5444 18.5049ZM17.7271 6.23335C18.0407 6.46123 18.3166 6.73704 18.5444 7.05068L19.758 6.169C19.4376 5.72802 19.0498 5.34022 18.6088 5.01983L17.7271 6.23335ZM5.39123 5.01983C4.95025 5.34022 4.56244 5.72802 4.24205 6.169L5.45558 7.05068C5.68345 6.73704 5.95927 6.46123 6.2729 6.23335L5.39123 5.01983ZM18.2985 14.7584C16.0759 15.1104 14.3327 16.8536 13.9806 19.0763L15.4622 19.311C15.7125 17.7301 16.9523 16.4903 18.5332 16.2399L18.2985 14.7584ZM9.33333 14.4167H14.6667V12.9167H9.33333V14.4167ZM19.9743 14.6944C19.1931 14.6945 18.7131 14.6927 18.2985 14.7584L18.5332 16.2399C18.8023 16.1973 19.1381 16.1945 19.9743 16.1944L19.9743 14.6944ZM19.25 12.7778C19.25 13.821 19.2499 14.6838 19.2247 15.4188L20.7238 15.4701C20.7501 14.704 20.75 13.8127 20.75 12.7778H19.25ZM19.2247 15.4188C19.1683 17.0666 18.984 17.8998 18.5444 18.5049L19.758 19.3866C20.4868 18.3834 20.6668 17.1364 20.7238 15.4701L19.2247 15.4188ZM15.4167 20.7521C15.4167 19.9159 15.4195 19.5801 15.4622 19.311L13.9806 19.0763C13.915 19.4909 13.9167 19.9709 13.9167 20.7521L15.4167 20.7521ZM12 21.5278C13.0349 21.5278 13.9262 21.5279 14.6923 21.5016L14.641 20.0025C13.906 20.0277 13.0432 20.0278 12 20.0278V21.5278ZM14.6923 21.5016C16.3587 21.4445 17.6056 21.2646 18.6088 20.5357L17.7271 19.3222C17.1221 19.7618 16.2888 19.946 14.641 20.0025L14.6923 21.5016ZM4.75 12.7778C4.75 11.7346 4.75009 10.8717 4.77527 10.1368L3.27615 10.0854C3.24991 10.8515 3.25 11.7429 3.25 12.7778H4.75ZM4.77527 10.1368C4.83173 8.489 5.01599 7.65572 5.45558 7.05068L4.24205 6.169C3.51322 7.17215 3.33324 8.41912 3.27615 10.0854L4.77527 10.1368ZM4.02571 10.8611H19.9743V9.36111H4.02571V10.8611ZM20.75 12.7778C20.75 11.7429 20.7501 10.8515 20.7238 10.0854L19.2247 10.1368C19.2499 10.8717 19.25 11.7346 19.25 12.7778H20.75ZM20.7238 10.0854C20.6668 8.41912 20.4868 7.17215 19.758 6.169L18.5444 7.05068C18.984 7.65572 19.1683 8.489 19.2247 10.1368L20.7238 10.0854ZM15.4167 5.66667V4.80349H13.9167V5.66667H15.4167ZM15.4167 4.80349V3H13.9167V4.80349H15.4167ZM12 5.52778C13.0432 5.52778 13.906 5.52787 14.641 5.55305L14.6923 4.05393C13.9262 4.02768 13.0349 4.02778 12 4.02778V5.52778ZM14.641 5.55305C16.2888 5.60951 17.1221 5.79377 17.7271 6.23335L18.6088 5.01983C17.6056 4.291 16.3587 4.11102 14.6923 4.05393L14.641 5.55305ZM10.0833 5.66667V4.80349H8.58333V5.66667H10.0833ZM10.0833 4.80349V3H8.58333V4.80349H10.0833ZM12 4.02778C10.9651 4.02778 10.0738 4.02768 9.30765 4.05393L9.35901 5.55305C10.094 5.52787 10.9568 5.52778 12 5.52778V4.02778ZM9.30765 4.05393C7.64134 4.11102 6.39438 4.291 5.39123 5.01983L6.2729 6.23335C6.87794 5.79377 7.71122 5.60951 9.35901 5.55305L9.30765 4.05393Z" fill="#626976"/>
</svg>
