<svg width="24" height="24" viewBox="0 0 24 24" fill="none" xmlns="http://www.w3.org/2000/svg">
<path d="M10.1164 17.7335C6.19242 17.7335 3 14.5409 3 10.6167C3 6.69256 6.19242 3.5 10.1164 3.5C14.0404 3.5 17.2328 6.69256 17.2328 10.6167C17.2328 14.5409 14.0404 17.7335 10.1164 17.7335ZM10.1164 4.92335C6.97737 4.92335 4.42328 7.47755 4.42328 10.6167C4.42328 13.7559 6.97737 16.3101 10.1164 16.3101C13.2555 16.3101 15.8095 13.7559 15.8095 10.6167C15.8095 7.47755 13.2561 4.92335 10.1164 4.92335Z" fill="#161515"/>
<path d="M20.2875 21.5C20.194 21.5001 20.1014 21.4817 20.0151 21.4459C19.9288 21.4101 19.8504 21.3577 19.7843 21.2915L14.309 15.8159C14.2429 15.7498 14.1905 15.6713 14.1548 15.585C14.119 15.4987 14.1006 15.4061 14.1006 15.3127C14.1006 15.2193 14.119 15.1267 14.1548 15.0404C14.1905 14.9541 14.2429 14.8756 14.309 14.8096C14.3751 14.7435 14.4535 14.6911 14.5398 14.6553C14.6262 14.6195 14.7187 14.6011 14.8121 14.6011C14.9056 14.6011 14.9981 14.6195 15.0844 14.6553C15.1708 14.6911 15.2492 14.7435 15.3153 14.8096L20.7906 20.2852C20.8905 20.3845 20.9585 20.5114 20.9862 20.6495C21.0138 20.7877 20.9998 20.9309 20.9459 21.0611C20.892 21.1913 20.8006 21.3025 20.6834 21.3806C20.5662 21.4588 20.4284 21.5003 20.2875 21.5Z" fill="#161515"/>
</svg>
